<?xml version="1.0" standalone="no"?>
<!DOCTYPE svg PUBLIC "-//W3C//DTD SVG 20010904//EN"
 "http://www.w3.org/TR/2001/REC-SVG-20010904/DTD/svg10.dtd">
<svg version="1.0" xmlns="http://www.w3.org/2000/svg"
 width="959.000000pt" height="959.000000pt" viewBox="0 0 959.000000 959.000000"
 preserveAspectRatio="xMidYMid meet">
<metadata>
Created by potrace 1.14, written by Peter Selinger 2001-2017
</metadata>
<g transform="translate(0.000000,959.000000) scale(0.100000,-0.100000)"
fill="#000000" stroke="none">
<path d="M2072 8273 c-33 -13 -162 -252 -208 -386 -26 -75 -71 -268 -99 -422
-21 -113 -105 -461 -150 -620 -33 -114 -55 -220 -70 -330 -15 -112 -84 -310
-190 -550 -32 -71 -68 -167 -82 -213 -28 -97 -93 -239 -170 -369 -30 -51 -80
-146 -112 -210 -36 -72 -91 -161 -142 -229 -46 -60 -106 -143 -134 -184 -27
-41 -87 -110 -132 -155 -93 -92 -113 -131 -113 -222 0 -52 7 -81 36 -148 31
-71 45 -92 109 -151 41 -37 94 -81 118 -98 25 -17 72 -51 105 -76 34 -25 80
-57 104 -71 125 -75 185 -108 208 -114 34 -10 121 -54 141 -71 8 -7 51 -25 95
-39 43 -15 102 -39 129 -55 28 -15 61 -31 73 -35 46 -14 122 -68 122 -86 0
-10 -9 -65 -20 -121 -23 -121 -26 -268 -6 -325 8 -22 33 -74 56 -114 23 -40
41 -80 40 -89 -2 -8 -4 -65 -5 -125 -2 -102 4 -157 33 -270 59 -232 106 -395
123 -424 26 -44 27 -121 3 -306 -16 -127 -29 -651 -14 -575 7 34 7 34 9 -12 0
-25 -3 -48 -8 -50 -4 -2 -5 -34 -1 -73 6 -55 7 -60 9 -26 2 69 8 45 14 -54 3
-55 2 -76 -3 -55 l-8 35 3 -40 c7 -94 29 -214 47 -260 11 -27 29 -78 40 -113
12 -35 24 -58 28 -53 3 6 6 -4 6 -22 0 -40 23 -99 35 -91 5 3 9 -6 9 -20 0
-30 59 -168 76 -178 7 -5 10 -17 7 -28 -14 -52 -145 -49 2328 -50 l2297 0 5
53 c9 85 8 199 -3 442 -13 267 -17 305 -31 284 -7 -10 -8 -6 -4 12 4 15 1 53
-5 85 -6 33 -13 70 -16 84 -2 14 -9 46 -14 72 -5 26 -16 100 -25 165 -38 303
-56 423 -74 488 -25 91 -82 271 -115 362 -14 40 -26 80 -26 88 0 9 -4 14 -9
11 -5 -4 -7 3 -4 14 3 12 0 20 -6 20 -7 0 -9 5 -6 10 4 6 -4 19 -17 30 -15 13
-17 18 -6 14 15 -5 16 -2 6 33 -6 21 -25 69 -43 108 -17 38 -42 104 -55 145
-12 41 -36 112 -52 158 -25 68 -33 81 -44 71 -16 -13 -19 2 -4 17 8 8 1 35
-45 159 -17 47 -60 133 -85 170 -15 22 -59 104 -98 183 -39 78 -80 155 -90
170 -11 15 -23 46 -27 67 -5 29 -4 36 4 25 8 -11 12 -5 17 29 5 30 22 63 54
105 26 33 53 81 62 106 l15 45 109 6 c143 8 136 7 128 20 -4 8 0 9 15 4 12 -3
45 -2 74 4 28 6 68 13 87 16 19 3 82 23 140 44 58 21 141 49 185 61 78 21 277
108 440 192 44 23 139 71 210 107 253 129 399 245 576 456 69 82 113 141 228
305 80 113 273 499 274 548 0 6 4 12 9 12 21 0 99 211 113 304 3 21 8 50 12
64 5 20 3 23 -8 17 -12 -7 -12 -6 -1 7 7 9 14 32 15 51 1 19 6 32 11 29 5 -3
6 11 3 34 -4 27 -3 34 3 24 8 -12 10 -9 10 11 0 15 2 42 5 60 4 26 3 30 -4 14
-7 -14 -10 -16 -10 -5 -1 9 5 25 13 36 8 11 17 35 20 54 6 38 88 286 111 337
8 17 15 38 15 47 0 39 22 116 32 110 7 -4 8 -2 4 5 -4 6 -4 25 -1 43 4 17 10
26 14 20 3 -6 7 6 7 26 0 20 7 53 16 72 9 19 21 73 28 120 6 47 24 157 40 245
16 88 32 185 34 215 16 193 37 325 67 426 5 17 9 49 9 72 0 22 4 43 9 46 4 3
6 -7 3 -22 -7 -40 6 -22 27 38 17 47 17 56 4 90 -12 31 -20 37 -44 38 -19 0
-27 -3 -23 -10 4 -6 2 -8 -4 -5 -12 8 -42 -1 -42 -13 0 -5 10 -6 22 -2 14 3
19 1 14 -6 -3 -6 -16 -9 -29 -7 -23 4 -105 -59 -90 -68 9 -6 39 13 41 26 3 10
16 10 19 0 4 -12 -75 -65 -81 -54 -4 5 2 11 11 13 16 3 16 4 2 10 -9 3 -22 2
-29 -2 -11 -7 -11 -11 1 -26 13 -16 12 -16 -6 -7 -16 9 -28 6 -60 -13 -22 -13
-39 -29 -37 -35 1 -6 -6 -8 -18 -4 -14 4 -20 2 -18 -7 2 -7 -4 -12 -14 -10
-17 3 -98 -33 -98 -44 0 -2 10 1 23 7 20 11 21 11 8 -5 -9 -10 -23 -15 -34
-12 -18 4 -107 -38 -107 -51 0 -3 21 7 46 22 25 15 48 25 50 22 7 -7 -125 -78
-150 -82 -12 -1 -34 -8 -51 -15 -16 -6 -38 -13 -48 -15 -10 -2 -55 -20 -100
-40 -45 -20 -131 -56 -192 -80 -128 -50 -229 -96 -233 -107 -2 -4 -10 -4 -19
-1 -10 4 -14 2 -10 -4 5 -7 -1 -9 -15 -5 -13 3 -19 1 -15 -5 5 -7 0 -9 -13 -6
-11 3 -20 1 -20 -4 0 -5 -20 -15 -45 -22 -25 -7 -45 -16 -45 -20 0 -4 -6 -8
-14 -8 -24 0 -76 -25 -70 -34 3 -5 -6 -9 -20 -9 -14 0 -54 -15 -88 -32 -35
-18 -66 -31 -70 -30 -5 1 -8 -2 -8 -6 0 -4 -21 -14 -46 -21 -32 -10 -44 -18
-40 -28 5 -11 1 -13 -15 -8 -13 5 -19 3 -15 -3 3 -5 -1 -13 -10 -16 -10 -4
-13 -2 -8 6 9 15 -39 -15 -118 -73 -32 -23 -55 -45 -52 -50 3 -5 -2 -6 -10 -3
-10 4 -16 1 -16 -10 0 -9 -6 -13 -13 -10 -12 4 -125 -78 -196 -143 -14 -12
-60 -48 -104 -80 -80 -58 -165 -131 -137 -117 8 4 12 4 8 -1 -4 -4 -18 -13
-30 -19 -12 -6 -28 -23 -35 -36 -7 -14 -16 -25 -20 -24 -5 1 -28 -19 -53 -44
-25 -26 -39 -43 -33 -39 9 6 11 3 7 -7 -3 -9 -9 -14 -13 -12 -3 2 -16 -7 -29
-20 -12 -13 -20 -24 -17 -24 3 0 -3 -8 -12 -18 -10 -11 -21 -17 -24 -16 -3 2
-20 -12 -38 -31 -17 -19 -29 -35 -26 -35 3 0 -3 -10 -15 -22 -11 -12 -20 -27
-20 -34 0 -6 -7 -17 -15 -24 -8 -7 -35 -42 -59 -79 -24 -36 -56 -79 -71 -96
-51 -59 -99 -125 -101 -141 -1 -9 -6 -19 -10 -22 -4 -4 -4 2 0 12 6 16 4 17
-9 6 -21 -18 -46 -66 -38 -74 4 -3 2 -6 -4 -6 -15 0 -72 -92 -132 -214 -30
-59 -57 -104 -61 -99 -4 4 -28 121 -55 258 -26 138 -59 295 -72 350 -25 101
-25 117 -4 245 27 163 31 215 30 433 -1 278 -12 515 -28 617 -7 41 -21 131
-32 200 -11 69 -35 168 -53 220 -30 87 -35 95 -60 98 -45 5 -206 -81 -283
-152 -18 -16 -34 -28 -36 -25 -2 2 -10 22 -19 44 -8 22 -41 75 -74 118 -56 76
-60 79 -92 73 -19 -3 -41 -11 -50 -18 -25 -21 -99 -140 -135 -219 -19 -41 -51
-101 -73 -134 -21 -34 -49 -83 -62 -110 -13 -29 -37 -59 -55 -71 -39 -25 -271
-218 -313 -260 -79 -78 -244 -298 -244 -325 0 -6 -4 -7 -10 -4 -5 3 -15 3 -21
-1 -8 -5 -8 -9 1 -14 9 -5 9 -13 1 -27 -20 -39 -23 -40 -521 -73 -296 -20
-720 -8 -776 21 -32 16 -58 70 -99 203 -20 65 -50 148 -67 185 -16 36 -50 115
-75 176 -24 60 -48 114 -53 120 -39 49 -128 239 -139 298 -6 32 -26 84 -46
118 -19 33 -29 57 -23 53 24 -13 -67 78 -106 107 -39 29 -49 32 -74 22z m6972
-115 c-3 -4 -11 -5 -19 -1 -21 7 -19 12 4 10 11 0 18 -5 15 -9z m-178 -110
c-21 -11 -40 -17 -43 -15 -2 3 10 11 26 18 17 8 31 18 31 22 0 5 5 5 11 1 8
-4 -2 -14 -25 -26z m-126 -58 c-8 -5 -19 -10 -25 -10 -5 0 -3 5 5 10 8 5 20
10 25 10 6 0 3 -5 -5 -10z m-1470 -653 c0 -2 -10 -12 -22 -23 l-23 -19 19 23
c18 21 26 27 26 19z m-50 -41 c0 -2 -8 -10 -17 -17 -16 -13 -17 -12 -4 4 13
16 21 21 21 13z m-2562 -1117 c48 -22 107 -51 132 -65 25 -13 73 -38 108 -55
34 -17 62 -36 62 -42 0 -5 -10 -2 -22 9 -21 19 -21 18 2 -21 30 -51 34 -55 25
-25 -7 22 -6 23 9 8 9 -10 13 -24 9 -34 -3 -10 -2 -15 3 -12 9 6 104 -112 104
-129 0 -5 7 -18 15 -28 46 -60 67 -100 109 -210 8 -22 15 -33 16 -25 0 8 7 0
15 -19 9 -20 13 -47 9 -70 -4 -25 2 -58 20 -111 24 -68 27 -89 27 -230 0 -187
-18 -294 -61 -363 -16 -26 -24 -45 -17 -41 6 3 0 -5 -15 -18 -16 -14 -28 -28
-28 -32 0 -4 -7 -14 -15 -22 -8 -9 -15 -13 -15 -9 0 4 -12 -8 -27 -27 -73 -88
-216 -203 -297 -238 -33 -15 -67 -22 -112 -21 -35 0 -66 -5 -70 -10 -4 -8 -9
-7 -14 1 -5 8 4 32 20 59 45 73 83 188 125 378 53 239 68 460 55 808 -2 70 -4
74 -9 35 -6 -45 -6 -44 -14 26 -4 40 -4 92 -1 117 8 54 -23 200 -39 190 -6 -3
-7 -1 -3 5 9 16 -21 83 -47 105 -12 10 -16 16 -9 12 11 -6 11 -3 0 14 -7 12
-19 21 -26 21 -7 0 -11 4 -8 9 3 5 -2 15 -11 22 -14 12 -16 12 -8 -1 4 -8 -2
-5 -13 7 -32 32 -57 36 -112 18 -63 -21 -105 -71 -159 -186 -102 -218 -143
-574 -121 -1040 10 -212 40 -419 60 -419 4 0 8 -12 8 -26 0 -15 5 -30 11 -34
7 -4 11 -11 10 -16 -4 -21 2 -35 11 -29 6 3 10 2 10 -3 0 -4 14 -24 31 -43 28
-31 29 -34 11 -37 -31 -5 -161 43 -230 84 -125 74 -251 214 -324 359 -71 141
-110 401 -88 585 19 158 74 314 140 400 15 19 40 59 55 88 59 109 196 228 356
308 53 27 197 59 235 51 13 -2 21 0 18 4 -9 15 5 10 94 -32z m1354 -91 c-7 -7
-12 -8 -12 -2 0 14 12 26 19 19 2 -3 -1 -11 -7 -17z m-3737 -7 c3 -6 -3 -18
-13 -28 -27 -25 -49 -68 -30 -58 7 3 5 0 -5 -8 -46 -38 -122 -345 -138 -564
-12 -159 0 -497 21 -593 43 -196 55 -243 75 -305 30 -91 53 -144 76 -177 11
-14 19 -29 19 -32 0 -7 -28 -2 -79 13 -19 6 -38 8 -43 5 -5 -3 -14 -1 -21 4
-7 5 -28 13 -47 17 -49 10 -103 40 -118 64 -7 12 -17 21 -23 21 -5 0 -7 -4 -4
-10 3 -6 -1 -7 -10 -3 -12 4 -13 8 -5 13 8 5 -8 21 -44 45 -30 20 -68 54 -84
76 -16 21 -33 35 -37 31 -5 -4 -5 -1 -1 5 7 12 -23 59 -72 113 -12 14 -25 33
-28 43 -3 9 -10 17 -15 17 -5 0 -8 3 -7 8 1 4 -5 21 -12 37 -64 151 -52 422
30 660 56 165 113 263 202 346 21 19 38 40 38 46 0 6 8 17 18 24 14 11 15 11
5 -1 -18 -20 -16 -35 2 -20 8 7 15 20 15 29 0 17 31 51 60 66 8 4 0 -7 -19
-24 -19 -17 -32 -33 -30 -36 6 -5 74 55 74 65 0 5 4 12 9 17 5 5 6 2 1 -6 -4
-7 -4 -12 1 -9 101 48 174 85 193 100 27 20 37 22 46 9z m-125 -38 c-19 -8
-50 -24 -69 -36 -19 -11 -31 -15 -27 -8 9 14 104 61 121 60 6 0 -6 -7 -25 -16z
m101 -26 c-10 -9 -11 -8 -5 6 3 10 9 15 12 12 3 -3 0 -11 -7 -18z m297 -13
c31 -20 80 -56 108 -80 28 -24 54 -41 58 -39 3 3 4 2 2 -1 -3 -3 -1 -11 5 -18
196 -237 254 -359 304 -651 22 -129 10 -299 -29 -420 -44 -136 -169 -305 -282
-380 -57 -38 -185 -98 -237 -111 l-29 -7 35 49 c38 54 88 172 93 219 1 17 4
30 5 30 1 0 3 9 5 20 2 11 10 49 18 85 8 36 23 157 32 270 21 262 12 446 -35
735 -15 94 -52 210 -87 273 -19 34 -32 62 -29 62 3 0 32 -16 63 -36z m2197 -4
c3 -5 1 -10 -4 -10 -6 0 -11 5 -11 10 0 6 2 10 4 10 3 0 8 -4 11 -10z m3902
-52 c-3 -8 -6 -5 -6 6 -1 11 2 17 5 13 3 -3 4 -12 1 -19z m-12 -58 c-4 -17 -9
-30 -11 -27 -2 2 -1 18 2 36 4 17 9 30 11 27 3 -2 2 -19 -2 -36z m-3848 -57
c-3 -10 -5 -2 -5 17 0 19 2 27 5 18 2 -10 2 -26 0 -35z m3829 -8 c0 -14 -4
-25 -8 -25 -10 0 -10 13 -2 34 9 23 12 20 10 -9z m-6 -63 c0 -15 -2 -15 -10
-2 -13 20 -13 33 0 25 6 -3 10 -14 10 -23z m-27 -63 c-5 -18 -14 -34 -21 -37
-8 -2 -7 6 3 25 8 15 15 34 15 42 0 8 3 12 6 9 3 -3 1 -21 -3 -39z m-30 -69
c-3 -12 -8 -19 -11 -16 -5 6 5 36 12 36 2 0 2 -9 -1 -20z m-3323 -55 c0 -5 -5
-3 -10 5 -5 8 -10 20 -10 25 0 6 5 3 10 -5 5 -8 10 -19 10 -25z m47 -197 c-3
-7 -5 -2 -5 12 0 14 2 19 5 13 2 -7 2 -19 0 -25z m-3535 -748 c5 0 8 -5 8 -12
0 -6 -11 -1 -25 12 -14 13 -25 31 -25 39 0 10 7 6 18 -11 9 -16 20 -28 24 -28z
m798 -147 c-17 -43 -35 -82 -40 -87 -5 -5 7 32 27 82 21 50 39 90 41 88 2 -2
-11 -39 -28 -83z m2158 -150 c-10 -2 -26 -2 -35 0 -10 3 -2 5 17 5 19 0 27 -2
18 -5z m1232 -752 c0 -5 -7 -11 -14 -14 -10 -4 -13 -1 -9 9 6 15 23 19 23 5z
m217 -543 c-3 -8 -6 -5 -6 6 -1 11 2 17 5 13 3 -3 4 -12 1 -19z m53 -124 c0
-8 -4 -12 -10 -9 -5 3 -10 10 -10 16 0 5 5 9 10 9 6 0 10 -7 10 -16z m30 -68
c-1 -20 -2 -20 -15 4 -19 33 -19 46 0 30 8 -7 15 -22 15 -34z m20 -66 c0 -13
-1 -13 -10 0 -5 8 -10 22 -10 30 0 13 1 13 10 0 5 -8 10 -22 10 -30z m40 -97
c0 -13 5 -23 10 -23 6 0 10 -15 10 -32 l-1 -33 -14 40 c-8 22 -15 48 -15 58 0
9 -5 17 -11 17 -5 0 -7 5 -3 11 9 15 24 -9 24 -38z m40 -114 c0 -6 -4 -7 -10
-4 -5 3 -10 11 -10 16 0 6 5 7 10 4 6 -3 10 -11 10 -16z m17 -71 c-3 -8 -6 -5
-6 6 -1 11 2 17 5 13 3 -3 4 -12 1 -19z m27 -64 c3 -8 2 -12 -4 -9 -6 3 -10
10 -10 16 0 14 7 11 14 -7z m26 -59 c0 -5 -5 -3 -10 5 -5 8 -10 20 -10 25 0 6
5 3 10 -5 5 -8 10 -19 10 -25z m34 -90 c5 -22 4 -26 -4 -15 -5 8 -10 24 -10
34 0 26 6 18 14 -19z m353 -1557 c-3 -8 -6 -5 -6 6 -1 11 2 17 5 13 3 -3 4
-12 1 -19z m-4697 -419 c0 -6 -4 -7 -10 -4 -5 3 -10 11 -10 16 0 6 5 7 10 4 6
-3 10 -11 10 -16z"/>
<path d="M4813 5710 c0 -25 2 -35 4 -22 2 12 2 32 0 45 -2 12 -4 2 -4 -23z"/>
<path d="M5231 5520 c0 -8 4 -24 9 -35 5 -13 9 -14 9 -5 0 8 -4 24 -9 35 -5
13 -9 14 -9 5z"/>
<path d="M8515 7890 c-3 -5 -2 -10 4 -10 5 0 13 5 16 10 3 6 2 10 -4 10 -5 0
-13 -4 -16 -10z"/>
<path d="M4031 7044 c0 -11 3 -14 6 -6 3 7 2 16 -1 19 -3 4 -6 -2 -5 -13z"/>
<path d="M8871 6754 c0 -11 3 -14 6 -6 3 7 2 16 -1 19 -3 4 -6 -2 -5 -13z"/>
</g>
</svg>
